<svg width="853" height="804" viewBox="0 0 853 804" fill="none" xmlns="http://www.w3.org/2000/svg">
<rect width="853" height="804" fill="#0E0E0E"/>
<path d="M95.3171 431H43.7913C42.4729 431 41.0447 430.854 39.5066 430.561C38.0051 430.231 36.5037 429.737 35.0022 429.077C33.5374 428.418 32.1274 427.576 30.7725 426.551C29.4175 425.489 28.209 424.225 27.147 422.76C26.1216 421.259 25.2976 419.538 24.675 417.597C24.0525 415.619 23.7412 413.404 23.7412 410.95V372.278C23.7412 370.96 23.8877 369.55 24.1807 368.048C24.5103 366.51 25.0046 365.009 25.6638 363.544C26.323 362.042 27.1836 360.614 28.2456 359.259C29.3076 357.904 30.571 356.714 32.0359 355.689C33.5374 354.627 35.2585 353.784 37.1995 353.162C39.1404 352.539 41.3376 352.228 43.7913 352.228H95.3171V366.51H43.7913C41.9236 366.51 40.4954 367.005 39.5066 367.993C38.5178 368.982 38.0234 370.447 38.0234 372.388V410.95C38.0234 412.781 38.5178 414.209 39.5066 415.235C40.532 416.223 41.9602 416.718 43.7913 416.718H95.3171V431ZM187.547 378.705C187.547 381.964 187.145 384.876 186.339 387.439C185.533 390.003 184.435 392.273 183.043 394.251C181.688 396.192 180.113 397.858 178.319 399.25C176.524 400.641 174.638 401.795 172.661 402.71C170.72 403.589 168.742 404.23 166.728 404.633C164.751 405.036 162.883 405.237 161.125 405.237L190.953 431H168.871L139.098 405.237H128.825V390.955H161.125C162.92 390.808 164.549 390.442 166.014 389.856C167.516 389.234 168.797 388.41 169.859 387.384C170.958 386.359 171.8 385.132 172.386 383.704C172.972 382.239 173.265 380.573 173.265 378.705V369.696C173.265 368.891 173.155 368.286 172.936 367.884C172.752 367.444 172.496 367.133 172.167 366.95C171.874 366.73 171.544 366.602 171.178 366.565C170.848 366.529 170.537 366.51 170.244 366.51H123.113V431H108.83V359.424C108.83 358.435 109.013 357.501 109.38 356.623C109.746 355.744 110.24 354.975 110.863 354.315C111.522 353.656 112.291 353.144 113.17 352.777C114.049 352.411 115.001 352.228 116.026 352.228H170.244C173.43 352.228 176.122 352.814 178.319 353.986C180.516 355.121 182.292 356.568 183.647 358.325C185.039 360.047 186.028 361.914 186.614 363.928C187.236 365.943 187.547 367.829 187.547 369.586V378.705ZM266.649 398.81H221.55V384.418H266.649V398.81ZM273.076 431H221.55C219.573 431 217.412 430.652 215.068 429.956C212.724 429.26 210.545 428.125 208.531 426.551C206.554 424.939 204.887 422.87 203.532 420.343C202.214 417.78 201.555 414.649 201.555 410.95V359.424C201.555 358.435 201.738 357.501 202.104 356.623C202.47 355.744 202.965 354.975 203.587 354.315C204.247 353.656 205.016 353.144 205.895 352.777C206.773 352.411 207.726 352.228 208.751 352.228H273.076V366.51H215.837V410.95C215.837 412.818 216.332 414.246 217.32 415.235C218.309 416.223 219.756 416.718 221.66 416.718H273.076V431ZM365.526 398.041C365.526 402.838 364.684 407.251 362.999 411.28C361.351 415.308 359.062 418.787 356.133 421.717C353.203 424.61 349.724 426.88 345.696 428.528C341.667 430.176 337.291 431 332.567 431H294.005C292.979 431 292.027 430.817 291.148 430.451C290.27 430.084 289.5 429.59 288.841 428.968C288.219 428.308 287.724 427.539 287.358 426.66C286.992 425.781 286.809 424.829 286.809 423.804V359.424C286.809 358.435 286.992 357.501 287.358 356.623C287.724 355.744 288.219 354.975 288.841 354.315C289.5 353.656 290.27 353.144 291.148 352.777C292.027 352.411 292.979 352.228 294.005 352.228H332.567C337.291 352.228 341.667 353.052 345.696 354.7C349.724 356.348 353.203 358.637 356.133 361.566C359.062 364.459 361.351 367.938 362.999 372.003C364.684 376.032 365.526 380.426 365.526 385.187V398.041ZM351.244 385.187C351.244 382.404 350.786 379.859 349.87 377.552C348.991 375.244 347.728 373.285 346.08 371.674C344.432 370.026 342.455 368.762 340.147 367.884C337.877 366.968 335.35 366.51 332.567 366.51H301.091V416.718H332.567C335.35 416.718 337.877 416.278 340.147 415.399C342.455 414.484 344.432 413.22 346.08 411.609C347.728 409.961 348.991 408.002 349.87 405.731C350.786 403.424 351.244 400.861 351.244 398.041V385.187ZM456.603 352.228L419.304 428.198C418.718 429.37 417.839 430.304 416.667 431C415.532 431.732 414.269 432.099 412.877 432.099C411.522 432.099 410.259 431.732 409.087 431C407.951 430.304 407.073 429.37 406.45 428.198L369.206 352.228H385.191L412.877 408.972L440.672 352.228H456.603ZM529.442 398.81H484.343V384.418H529.442V398.81ZM535.869 431H484.343C482.365 431 480.205 430.652 477.861 429.956C475.517 429.26 473.338 428.125 471.324 426.551C469.347 424.939 467.68 422.87 466.325 420.343C465.007 417.78 464.348 414.649 464.348 410.95V359.424C464.348 358.435 464.531 357.501 464.897 356.623C465.263 355.744 465.758 354.975 466.38 354.315C467.04 353.656 467.809 353.144 468.688 352.777C469.566 352.411 470.519 352.228 471.544 352.228H535.869V366.51H478.63V410.95C478.63 412.818 479.125 414.246 480.113 415.235C481.102 416.223 482.549 416.718 484.453 416.718H535.869V431ZM628.429 378.705C628.429 381.964 628.026 384.876 627.22 387.439C626.415 390.003 625.316 392.273 623.924 394.251C622.569 396.192 620.995 397.858 619.2 399.25C617.406 400.641 615.52 401.795 613.542 402.71C611.601 403.589 609.624 404.23 607.61 404.633C605.632 405.036 603.764 405.237 602.007 405.237L631.834 431H609.752L579.979 405.237H569.707V390.955H602.007C603.801 390.808 605.431 390.442 606.896 389.856C608.397 389.234 609.679 388.41 610.741 387.384C611.839 386.359 612.682 385.132 613.268 383.704C613.854 382.239 614.146 380.573 614.146 378.705V369.696C614.146 368.891 614.037 368.286 613.817 367.884C613.634 367.444 613.377 367.133 613.048 366.95C612.755 366.73 612.425 366.602 612.059 366.565C611.729 366.529 611.418 366.51 611.125 366.51H563.994V431H549.712V359.424C549.712 358.435 549.895 357.501 550.261 356.623C550.627 355.744 551.122 354.975 551.744 354.315C552.403 353.656 553.172 353.144 554.051 352.777C554.93 352.411 555.882 352.228 556.908 352.228H611.125C614.311 352.228 617.003 352.814 619.2 353.986C621.397 355.121 623.174 356.568 624.529 358.325C625.92 360.047 626.909 361.914 627.495 363.928C628.117 365.943 628.429 367.829 628.429 369.586V378.705ZM657.158 431H642.876V352.228H657.158V431ZM739.006 398.81H693.852V384.418H739.006V398.81ZM745.378 366.51H688.139V431H673.857V359.424C673.857 358.435 674.04 357.501 674.406 356.623C674.773 355.744 675.267 354.975 675.89 354.315C676.549 353.656 677.318 353.144 678.197 352.777C679.076 352.411 680.028 352.228 681.053 352.228H745.378V366.51ZM831.95 378.595C831.95 381.854 831.529 384.766 830.687 387.329C829.881 389.893 828.801 392.163 827.446 394.141C826.091 396.082 824.498 397.748 822.667 399.14C820.873 400.531 819.005 401.685 817.064 402.6C815.123 403.479 813.146 404.12 811.131 404.523C809.154 404.926 807.286 405.127 805.528 405.127H799.76V431H785.368V405.127H779.656C777.898 405.127 776.012 404.926 773.998 404.523C772.02 404.12 770.042 403.479 768.065 402.6C766.124 401.685 764.256 400.531 762.462 399.14C760.667 397.748 759.074 396.082 757.683 394.141C756.328 392.163 755.229 389.893 754.387 387.329C753.581 384.729 753.178 381.818 753.178 378.595V352.228H767.461V378.595C767.461 380.463 767.754 382.147 768.34 383.649C768.926 385.114 769.75 386.377 770.812 387.439C771.874 388.501 773.155 389.325 774.657 389.911C776.195 390.46 777.898 390.735 779.765 390.735H805.528C806.883 390.515 808.275 390.241 809.703 389.911C811.131 389.545 812.431 388.941 813.603 388.098C814.775 387.256 815.746 386.084 816.515 384.583C817.284 383.081 817.668 381.085 817.668 378.595V352.228H831.95V378.595Z" fill="#838383"/>
<path d="M68.2832 469H65.998V465.906H57.9648V469H55.6797V462.698C55.6797 461.778 55.8379 460.932 56.1543 460.158C56.4707 459.385 56.9102 458.72 57.4727 458.163C58.0352 457.606 58.7002 457.173 59.4678 456.862C60.2354 456.552 61.0732 456.396 61.9814 456.396H67.1318C67.29 456.396 67.4395 456.426 67.5801 456.484C67.7207 456.543 67.8438 456.625 67.9492 456.73C68.0547 456.836 68.1367 456.959 68.1953 457.1C68.2539 457.24 68.2832 457.39 68.2832 457.548V469ZM57.9648 463.621H65.998V458.682H61.9814C61.9111 458.682 61.7617 458.693 61.5332 458.717C61.3105 458.734 61.0498 458.784 60.751 458.866C60.458 458.948 60.1475 459.074 59.8193 459.244C59.4912 459.414 59.1895 459.648 58.9141 459.947C58.6387 460.246 58.4102 460.621 58.2285 461.072C58.0527 461.518 57.9648 462.06 57.9648 462.698V463.621ZM89.377 463.727C89.377 464.494 89.2422 465.2 88.9727 465.845C88.709 466.489 88.3428 467.046 87.874 467.515C87.4053 467.978 86.8486 468.341 86.2041 468.604C85.5596 468.868 84.8594 469 84.1035 469H77.9336C77.7695 469 77.6172 468.971 77.4766 468.912C77.3359 468.854 77.2129 468.774 77.1074 468.675C77.0078 468.569 76.9287 468.446 76.8701 468.306C76.8115 468.165 76.7822 468.013 76.7822 467.849V457.548C76.7822 457.39 76.8115 457.24 76.8701 457.1C76.9287 456.959 77.0078 456.836 77.1074 456.73C77.2129 456.625 77.3359 456.543 77.4766 456.484C77.6172 456.426 77.7695 456.396 77.9336 456.396H84.1035C84.8594 456.396 85.5596 456.528 86.2041 456.792C86.8486 457.056 87.4053 457.422 87.874 457.891C88.3428 458.354 88.709 458.91 88.9727 459.561C89.2422 460.205 89.377 460.908 89.377 461.67V463.727ZM87.0918 461.67C87.0918 461.225 87.0186 460.817 86.8721 460.448C86.7314 460.079 86.5293 459.766 86.2656 459.508C86.002 459.244 85.6855 459.042 85.3164 458.901C84.9531 458.755 84.5488 458.682 84.1035 458.682H79.0674V466.715H84.1035C84.5488 466.715 84.9531 466.645 85.3164 466.504C85.6855 466.357 86.002 466.155 86.2656 465.897C86.5293 465.634 86.7314 465.32 86.8721 464.957C87.0186 464.588 87.0918 464.178 87.0918 463.727V461.67ZM101.585 462.646C101.585 462.962 101.529 463.305 101.418 463.674C101.307 464.037 101.125 464.377 100.873 464.693C100.627 465.004 100.302 465.265 99.8975 465.476C99.499 465.687 99.0127 465.792 98.4385 465.792H94.3164V463.621H98.4385C98.749 463.621 98.9893 463.527 99.1592 463.34C99.3291 463.146 99.4141 462.909 99.4141 462.628C99.4141 462.329 99.3174 462.095 99.124 461.925C98.9365 461.755 98.708 461.67 98.4385 461.67H94.3164C94.0059 461.67 93.7656 461.767 93.5957 461.96C93.4258 462.147 93.3408 462.382 93.3408 462.663V465.854C93.3408 466.158 93.4346 466.396 93.6221 466.565C93.8154 466.735 94.0527 466.82 94.334 466.82H98.4385V469H94.3164C94 469 93.6572 468.944 93.2881 468.833C92.9248 468.722 92.585 468.543 92.2686 468.297C91.958 468.045 91.6973 467.72 91.4863 467.321C91.2754 466.917 91.1699 466.428 91.1699 465.854V462.646C91.1699 462.329 91.2256 461.989 91.3369 461.626C91.4482 461.257 91.627 460.917 91.873 460.606C92.125 460.29 92.4502 460.026 92.8486 459.815C93.2529 459.604 93.7422 459.499 94.3164 459.499H98.4385C98.7549 459.499 99.0947 459.555 99.458 459.666C99.8271 459.777 100.167 459.959 100.478 460.211C100.794 460.457 101.058 460.782 101.269 461.187C101.479 461.585 101.585 462.071 101.585 462.646ZM112.325 469H106.129C105.812 469 105.467 468.944 105.092 468.833C104.717 468.722 104.368 468.54 104.046 468.288C103.729 468.03 103.463 467.699 103.246 467.295C103.035 466.885 102.93 466.384 102.93 465.792V462.698C102.93 462.481 102.953 462.253 103 462.013C103.053 461.772 103.132 461.535 103.237 461.301C103.343 461.061 103.478 460.832 103.642 460.615C103.812 460.398 104.014 460.208 104.248 460.044C104.488 459.88 104.764 459.748 105.074 459.648C105.385 459.549 105.736 459.499 106.129 459.499H112.325V461.784H106.129C105.83 461.784 105.602 461.86 105.443 462.013C105.291 462.165 105.215 462.399 105.215 462.716V465.792C105.215 466.091 105.294 466.319 105.452 466.478C105.61 466.636 105.842 466.715 106.146 466.715H112.325V469ZM124.366 462.646C124.366 462.962 124.311 463.305 124.199 463.674C124.088 464.037 123.906 464.377 123.654 464.693C123.408 465.004 123.083 465.265 122.679 465.476C122.28 465.687 121.794 465.792 121.22 465.792H117.098V463.621H121.22C121.53 463.621 121.771 463.527 121.94 463.34C122.11 463.146 122.195 462.909 122.195 462.628C122.195 462.329 122.099 462.095 121.905 461.925C121.718 461.755 121.489 461.67 121.22 461.67H117.098C116.787 461.67 116.547 461.767 116.377 461.96C116.207 462.147 116.122 462.382 116.122 462.663V465.854C116.122 466.158 116.216 466.396 116.403 466.565C116.597 466.735 116.834 466.82 117.115 466.82H121.22V469H117.098C116.781 469 116.438 468.944 116.069 468.833C115.706 468.722 115.366 468.543 115.05 468.297C114.739 468.045 114.479 467.72 114.268 467.321C114.057 466.917 113.951 466.428 113.951 465.854V462.646C113.951 462.329 114.007 461.989 114.118 461.626C114.229 461.257 114.408 460.917 114.654 460.606C114.906 460.29 115.231 460.026 115.63 459.815C116.034 459.604 116.523 459.499 117.098 459.499H121.22C121.536 459.499 121.876 459.555 122.239 459.666C122.608 459.777 122.948 459.959 123.259 460.211C123.575 460.457 123.839 460.782 124.05 461.187C124.261 461.585 124.366 462.071 124.366 462.646ZM136.434 469H134.148V463.727C134.148 463.428 134.096 463.161 133.99 462.927C133.891 462.687 133.753 462.481 133.577 462.312C133.401 462.142 133.193 462.013 132.953 461.925C132.719 461.831 132.464 461.784 132.188 461.784H128.189V469H125.904V460.633C125.904 460.475 125.934 460.328 125.992 460.193C126.051 460.053 126.133 459.933 126.238 459.833C126.344 459.728 126.467 459.646 126.607 459.587C126.748 459.528 126.897 459.499 127.056 459.499H132.206C132.493 459.499 132.795 459.531 133.111 459.596C133.434 459.66 133.75 459.766 134.061 459.912C134.377 460.053 134.676 460.234 134.957 460.457C135.244 460.674 135.496 460.94 135.713 461.257C135.936 461.567 136.111 461.928 136.24 462.338C136.369 462.748 136.434 463.211 136.434 463.727V469ZM146.796 461.784H142.806V469H140.494V461.784H137.523V459.499H140.494V456.396H142.806V459.499H146.796V461.784ZM156.561 461.784H151.419C151.108 461.784 150.874 461.863 150.716 462.021C150.558 462.174 150.479 462.399 150.479 462.698V469H148.193V462.698C148.193 462.306 148.243 461.954 148.343 461.644C148.442 461.333 148.574 461.061 148.738 460.826C148.908 460.586 149.102 460.384 149.318 460.22C149.535 460.05 149.761 459.912 149.995 459.807C150.235 459.701 150.476 459.625 150.716 459.578C150.962 459.525 151.19 459.499 151.401 459.499H156.561V461.784ZM167.143 465.854C167.143 466.17 167.087 466.513 166.976 466.882C166.864 467.245 166.683 467.585 166.431 467.901C166.185 468.212 165.859 468.473 165.455 468.684C165.057 468.895 164.57 469 163.996 469H159.874C159.558 469 159.215 468.944 158.846 468.833C158.482 468.722 158.143 468.543 157.826 468.297C157.516 468.045 157.255 467.72 157.044 467.321C156.833 466.917 156.728 466.428 156.728 465.854C156.728 465.537 156.783 465.194 156.895 464.825C157.006 464.456 157.185 464.116 157.431 463.806C157.683 463.489 158.008 463.226 158.406 463.015C158.811 462.804 159.3 462.698 159.874 462.698H163.996V464.878H159.874C159.563 464.878 159.323 464.975 159.153 465.168C158.983 465.355 158.898 465.59 158.898 465.871C158.898 466.17 158.995 466.404 159.188 466.574C159.388 466.738 159.622 466.82 159.892 466.82H163.996C164.307 466.82 164.547 466.727 164.717 466.539C164.887 466.352 164.972 466.117 164.972 465.836V462.646C164.972 462.347 164.878 462.109 164.69 461.934C164.509 461.758 164.277 461.67 163.996 461.67H158.978V459.499H163.996C164.312 459.499 164.652 459.555 165.016 459.666C165.385 459.777 165.725 459.959 166.035 460.211C166.352 460.457 166.615 460.782 166.826 461.187C167.037 461.585 167.143 462.071 167.143 462.646V465.854ZM173.269 469H172.249C171.921 469 171.569 468.944 171.194 468.833C170.825 468.722 170.479 468.54 170.157 468.288C169.835 468.03 169.568 467.699 169.357 467.295C169.146 466.885 169.041 466.384 169.041 465.792V455.482H171.326V465.792C171.326 466.073 171.414 466.299 171.59 466.469C171.766 466.633 171.985 466.715 172.249 466.715H173.269V469ZM177.057 457.548H174.771V455.482H177.057V457.548ZM177.057 469H174.771V459.499H177.057V469ZM188.438 465.792C188.438 466.185 188.389 466.539 188.289 466.855C188.189 467.166 188.058 467.441 187.894 467.682C187.729 467.916 187.539 468.118 187.322 468.288C187.105 468.452 186.877 468.587 186.637 468.692C186.402 468.798 186.162 468.877 185.916 468.93C185.676 468.977 185.447 469 185.23 469H179.043V466.715H185.213C185.523 466.715 185.758 466.636 185.916 466.478C186.074 466.319 186.153 466.091 186.153 465.792C186.124 465.183 185.816 464.878 185.23 464.878H181.688C181.185 464.878 180.757 464.79 180.405 464.614C180.054 464.438 179.767 464.219 179.544 463.955C179.327 463.691 179.169 463.407 179.069 463.103C178.976 462.798 178.929 462.514 178.929 462.25C178.929 461.74 179.02 461.312 179.201 460.967C179.383 460.615 179.611 460.331 179.887 460.114C180.162 459.897 180.461 459.742 180.783 459.648C181.105 459.549 181.407 459.499 181.688 459.499H187.305V461.784H181.706C181.589 461.784 181.495 461.799 181.425 461.828C181.36 461.852 181.311 461.887 181.275 461.934C181.246 461.975 181.229 462.021 181.223 462.074C181.217 462.121 181.214 462.168 181.214 462.215C181.22 462.309 181.237 462.382 181.267 462.435C181.296 462.487 181.331 462.525 181.372 462.549C181.419 462.572 181.469 462.587 181.521 462.593C181.58 462.593 181.636 462.593 181.688 462.593H185.23C185.816 462.593 186.314 462.698 186.725 462.909C187.135 463.12 187.466 463.387 187.718 463.709C187.97 464.025 188.151 464.371 188.263 464.746C188.38 465.121 188.438 465.47 188.438 465.792ZM200.269 462.646C200.269 462.962 200.213 463.305 200.102 463.674C199.99 464.037 199.809 464.377 199.557 464.693C199.311 465.004 198.985 465.265 198.581 465.476C198.183 465.687 197.696 465.792 197.122 465.792H193V463.621H197.122C197.433 463.621 197.673 463.527 197.843 463.34C198.013 463.146 198.098 462.909 198.098 462.628C198.098 462.329 198.001 462.095 197.808 461.925C197.62 461.755 197.392 461.67 197.122 461.67H193C192.689 461.67 192.449 461.767 192.279 461.96C192.109 462.147 192.024 462.382 192.024 462.663V465.854C192.024 466.158 192.118 466.396 192.306 466.565C192.499 466.735 192.736 466.82 193.018 466.82H197.122V469H193C192.684 469 192.341 468.944 191.972 468.833C191.608 468.722 191.269 468.543 190.952 468.297C190.642 468.045 190.381 467.72 190.17 467.321C189.959 466.917 189.854 466.428 189.854 465.854V462.646C189.854 462.329 189.909 461.989 190.021 461.626C190.132 461.257 190.311 460.917 190.557 460.606C190.809 460.29 191.134 460.026 191.532 459.815C191.937 459.604 192.426 459.499 193 459.499H197.122C197.438 459.499 197.778 459.555 198.142 459.666C198.511 459.777 198.851 459.959 199.161 460.211C199.478 460.457 199.741 460.782 199.952 461.187C200.163 461.585 200.269 462.071 200.269 462.646ZM212.23 465.792C212.23 466.185 212.181 466.539 212.081 466.855C211.981 467.166 211.85 467.441 211.686 467.682C211.521 467.916 211.331 468.118 211.114 468.288C210.897 468.452 210.669 468.587 210.429 468.692C210.194 468.798 209.954 468.877 209.708 468.93C209.468 468.977 209.239 469 209.022 469H204.9C204.508 469 204.156 468.95 203.846 468.851C203.535 468.751 203.26 468.619 203.02 468.455C202.785 468.285 202.583 468.092 202.413 467.875C202.249 467.658 202.114 467.433 202.009 467.198C201.903 466.958 201.824 466.718 201.771 466.478C201.725 466.231 201.701 466.003 201.701 465.792V462.698C201.701 462.112 201.807 461.617 202.018 461.213C202.234 460.803 202.501 460.472 202.817 460.22C203.14 459.962 203.488 459.777 203.863 459.666C204.238 459.555 204.584 459.499 204.9 459.499H209.022V461.784H204.918C204.613 461.784 204.382 461.863 204.224 462.021C204.065 462.174 203.986 462.399 203.986 462.698V465.774C203.986 466.085 204.062 466.319 204.215 466.478C204.373 466.636 204.602 466.715 204.9 466.715H209.022C209.333 466.715 209.564 466.636 209.717 466.478C209.869 466.319 209.945 466.091 209.945 465.792V455.482H212.23V465.792ZM232.885 469H230.6V465.906H222.566V469H220.281V462.698C220.281 461.778 220.439 460.932 220.756 460.158C221.072 459.385 221.512 458.72 222.074 458.163C222.637 457.606 223.302 457.173 224.069 456.862C224.837 456.552 225.675 456.396 226.583 456.396H231.733C231.892 456.396 232.041 456.426 232.182 456.484C232.322 456.543 232.445 456.625 232.551 456.73C232.656 456.836 232.738 456.959 232.797 457.1C232.855 457.24 232.885 457.39 232.885 457.548V469ZM222.566 463.621H230.6V458.682H226.583C226.513 458.682 226.363 458.693 226.135 458.717C225.912 458.734 225.651 458.784 225.353 458.866C225.06 458.948 224.749 459.074 224.421 459.244C224.093 459.414 223.791 459.648 223.516 459.947C223.24 460.246 223.012 460.621 222.83 461.072C222.654 461.518 222.566 462.06 222.566 462.698V463.621ZM244.442 469H238.246C237.93 469 237.584 468.944 237.209 468.833C236.834 468.722 236.485 468.54 236.163 468.288C235.847 468.03 235.58 467.699 235.363 467.295C235.152 466.885 235.047 466.384 235.047 465.792V462.698C235.047 462.481 235.07 462.253 235.117 462.013C235.17 461.772 235.249 461.535 235.354 461.301C235.46 461.061 235.595 460.832 235.759 460.615C235.929 460.398 236.131 460.208 236.365 460.044C236.605 459.88 236.881 459.748 237.191 459.648C237.502 459.549 237.854 459.499 238.246 459.499H244.442V461.784H238.246C237.947 461.784 237.719 461.86 237.561 462.013C237.408 462.165 237.332 462.399 237.332 462.716V465.792C237.332 466.091 237.411 466.319 237.569 466.478C237.728 466.636 237.959 466.715 238.264 466.715H244.442V469ZM256.088 465.854C256.088 466.17 256.032 466.513 255.921 466.882C255.81 467.245 255.628 467.585 255.376 467.901C255.13 468.212 254.805 468.473 254.4 468.684C254.002 468.895 253.516 469 252.941 469H248.819C248.503 469 248.16 468.944 247.791 468.833C247.428 468.722 247.088 468.543 246.771 468.297C246.461 468.045 246.2 467.72 245.989 467.321C245.778 466.917 245.673 466.428 245.673 465.854C245.673 465.537 245.729 465.194 245.84 464.825C245.951 464.456 246.13 464.116 246.376 463.806C246.628 463.489 246.953 463.226 247.352 463.015C247.756 462.804 248.245 462.698 248.819 462.698H252.941V464.878H248.819C248.509 464.878 248.269 464.975 248.099 465.168C247.929 465.355 247.844 465.59 247.844 465.871C247.844 466.17 247.94 466.404 248.134 466.574C248.333 466.738 248.567 466.82 248.837 466.82H252.941C253.252 466.82 253.492 466.727 253.662 466.539C253.832 466.352 253.917 466.117 253.917 465.836V462.646C253.917 462.347 253.823 462.109 253.636 461.934C253.454 461.758 253.223 461.67 252.941 461.67H247.923V459.499H252.941C253.258 459.499 253.598 459.555 253.961 459.666C254.33 459.777 254.67 459.959 254.98 460.211C255.297 460.457 255.561 460.782 255.771 461.187C255.982 461.585 256.088 462.071 256.088 462.646V465.854ZM268.463 465.792C268.463 466.185 268.413 466.539 268.313 466.855C268.214 467.166 268.082 467.441 267.918 467.682C267.754 467.916 267.563 468.118 267.347 468.288C267.13 468.452 266.901 468.587 266.661 468.692C266.427 468.798 266.187 468.877 265.94 468.93C265.7 468.977 265.472 469 265.255 469H261.133C260.74 469 260.389 468.95 260.078 468.851C259.768 468.751 259.492 468.619 259.252 468.455C259.018 468.285 258.815 468.092 258.646 467.875C258.481 467.658 258.347 467.433 258.241 467.198C258.136 466.958 258.057 466.718 258.004 466.478C257.957 466.231 257.934 466.003 257.934 465.792V462.698C257.934 462.112 258.039 461.617 258.25 461.213C258.467 460.803 258.733 460.472 259.05 460.22C259.372 459.962 259.721 459.777 260.096 459.666C260.471 459.555 260.816 459.499 261.133 459.499H265.255V461.784H261.15C260.846 461.784 260.614 461.863 260.456 462.021C260.298 462.174 260.219 462.399 260.219 462.698V465.774C260.219 466.085 260.295 466.319 260.447 466.478C260.605 466.636 260.834 466.715 261.133 466.715H265.255C265.565 466.715 265.797 466.636 265.949 466.478C266.102 466.319 266.178 466.091 266.178 465.792V455.482H268.463V465.792ZM280.864 462.646C280.864 462.962 280.809 463.305 280.697 463.674C280.586 464.037 280.404 464.377 280.152 464.693C279.906 465.004 279.581 465.265 279.177 465.476C278.778 465.687 278.292 465.792 277.718 465.792H273.596V463.621H277.718C278.028 463.621 278.269 463.527 278.438 463.34C278.608 463.146 278.693 462.909 278.693 462.628C278.693 462.329 278.597 462.095 278.403 461.925C278.216 461.755 277.987 461.67 277.718 461.67H273.596C273.285 461.67 273.045 461.767 272.875 461.96C272.705 462.147 272.62 462.382 272.62 462.663V465.854C272.62 466.158 272.714 466.396 272.901 466.565C273.095 466.735 273.332 466.82 273.613 466.82H277.718V469H273.596C273.279 469 272.937 468.944 272.567 468.833C272.204 468.722 271.864 468.543 271.548 468.297C271.237 468.045 270.977 467.72 270.766 467.321C270.555 466.917 270.449 466.428 270.449 465.854V462.646C270.449 462.329 270.505 461.989 270.616 461.626C270.728 461.257 270.906 460.917 271.152 460.606C271.404 460.29 271.729 460.026 272.128 459.815C272.532 459.604 273.021 459.499 273.596 459.499H277.718C278.034 459.499 278.374 459.555 278.737 459.666C279.106 459.777 279.446 459.959 279.757 460.211C280.073 460.457 280.337 460.782 280.548 461.187C280.759 461.585 280.864 462.071 280.864 462.646ZM290.884 469H288.599V462.698C288.599 462.399 288.52 462.174 288.361 462.021C288.203 461.863 287.969 461.784 287.658 461.784H284.688V469H282.402V460.633C282.402 460.475 282.432 460.328 282.49 460.193C282.549 460.053 282.631 459.933 282.736 459.833C282.842 459.728 282.965 459.646 283.105 459.587C283.246 459.528 283.396 459.499 283.554 459.499H287.676C287.992 459.499 288.332 459.555 288.695 459.666C289.059 459.777 289.404 459.956 289.732 460.202V459.499H292.826C293.043 459.499 293.271 459.525 293.512 459.578C293.752 459.625 293.989 459.701 294.224 459.807C294.464 459.912 294.692 460.05 294.909 460.22C295.126 460.384 295.316 460.586 295.48 460.826C295.645 461.061 295.776 461.333 295.876 461.644C295.976 461.954 296.025 462.306 296.025 462.698V469H293.74V462.698C293.74 462.399 293.664 462.174 293.512 462.021C293.365 461.863 293.137 461.784 292.826 461.784H290.77C290.846 462.065 290.884 462.37 290.884 462.698V469ZM300.455 457.548H298.17V455.482H300.455V457.548ZM300.455 469H298.17V459.499H300.455V469ZM311.854 469H305.658C305.342 469 304.996 468.944 304.621 468.833C304.246 468.722 303.897 468.54 303.575 468.288C303.259 468.03 302.992 467.699 302.775 467.295C302.564 466.885 302.459 466.384 302.459 465.792V462.698C302.459 462.481 302.482 462.253 302.529 462.013C302.582 461.772 302.661 461.535 302.767 461.301C302.872 461.061 303.007 460.832 303.171 460.615C303.341 460.398 303.543 460.208 303.777 460.044C304.018 459.88 304.293 459.748 304.604 459.648C304.914 459.549 305.266 459.499 305.658 459.499H311.854V461.784H305.658C305.359 461.784 305.131 461.86 304.973 462.013C304.82 462.165 304.744 462.399 304.744 462.716V465.792C304.744 466.091 304.823 466.319 304.981 466.478C305.14 466.636 305.371 466.715 305.676 466.715H311.854V469ZM331.138 469H322.894C322.683 469 322.454 468.977 322.208 468.93C321.968 468.877 321.728 468.798 321.487 468.692C321.253 468.587 321.027 468.452 320.811 468.288C320.594 468.118 320.4 467.916 320.23 467.682C320.066 467.441 319.935 467.166 319.835 466.855C319.735 466.539 319.686 466.185 319.686 465.792V459.604C319.686 459.394 319.709 459.168 319.756 458.928C319.809 458.682 319.888 458.441 319.993 458.207C320.099 457.967 320.236 457.738 320.406 457.521C320.576 457.305 320.778 457.114 321.013 456.95C321.253 456.78 321.528 456.646 321.839 456.546C322.149 456.446 322.501 456.396 322.894 456.396H331.138V458.682H322.894C322.595 458.682 322.366 458.761 322.208 458.919C322.05 459.077 321.971 459.312 321.971 459.622V465.792C321.971 466.085 322.05 466.313 322.208 466.478C322.372 466.636 322.601 466.715 322.894 466.715H331.138V469ZM341.307 461.784H336.165C335.854 461.784 335.62 461.863 335.462 462.021C335.304 462.174 335.225 462.399 335.225 462.698V469H332.939V462.698C332.939 462.306 332.989 461.954 333.089 461.644C333.188 461.333 333.32 461.061 333.484 460.826C333.654 460.586 333.848 460.384 334.064 460.22C334.281 460.05 334.507 459.912 334.741 459.807C334.981 459.701 335.222 459.625 335.462 459.578C335.708 459.525 335.937 459.499 336.147 459.499H341.307V461.784ZM353.005 462.646C353.005 462.962 352.949 463.305 352.838 463.674C352.727 464.037 352.545 464.377 352.293 464.693C352.047 465.004 351.722 465.265 351.317 465.476C350.919 465.687 350.433 465.792 349.858 465.792H345.736V463.621H349.858C350.169 463.621 350.409 463.527 350.579 463.34C350.749 463.146 350.834 462.909 350.834 462.628C350.834 462.329 350.737 462.095 350.544 461.925C350.356 461.755 350.128 461.67 349.858 461.67H345.736C345.426 461.67 345.186 461.767 345.016 461.96C344.846 462.147 344.761 462.382 344.761 462.663V465.854C344.761 466.158 344.854 466.396 345.042 466.565C345.235 466.735 345.473 466.82 345.754 466.82H349.858V469H345.736C345.42 469 345.077 468.944 344.708 468.833C344.345 468.722 344.005 468.543 343.688 468.297C343.378 468.045 343.117 467.72 342.906 467.321C342.695 466.917 342.59 466.428 342.59 465.854V462.646C342.59 462.329 342.646 461.989 342.757 461.626C342.868 461.257 343.047 460.917 343.293 460.606C343.545 460.29 343.87 460.026 344.269 459.815C344.673 459.604 345.162 459.499 345.736 459.499H349.858C350.175 459.499 350.515 459.555 350.878 459.666C351.247 459.777 351.587 459.959 351.897 460.211C352.214 460.457 352.478 460.782 352.688 461.187C352.899 461.585 353.005 462.071 353.005 462.646ZM364.967 465.792C364.967 466.185 364.917 466.539 364.817 466.855C364.718 467.166 364.586 467.441 364.422 467.682C364.258 467.916 364.067 468.118 363.851 468.288C363.634 468.452 363.405 468.587 363.165 468.692C362.931 468.798 362.69 468.877 362.444 468.93C362.204 468.977 361.976 469 361.759 469H357.637C357.244 469 356.893 468.95 356.582 468.851C356.271 468.751 355.996 468.619 355.756 468.455C355.521 468.285 355.319 468.092 355.149 467.875C354.985 467.658 354.851 467.433 354.745 467.198C354.64 466.958 354.561 466.718 354.508 466.478C354.461 466.231 354.438 466.003 354.438 465.792V462.698C354.438 462.112 354.543 461.617 354.754 461.213C354.971 460.803 355.237 460.472 355.554 460.22C355.876 459.962 356.225 459.777 356.6 459.666C356.975 459.555 357.32 459.499 357.637 459.499H361.759V461.784H357.654C357.35 461.784 357.118 461.863 356.96 462.021C356.802 462.174 356.723 462.399 356.723 462.698V465.774C356.723 466.085 356.799 466.319 356.951 466.478C357.109 466.636 357.338 466.715 357.637 466.715H361.759C362.069 466.715 362.301 466.636 362.453 466.478C362.605 466.319 362.682 466.091 362.682 465.792V455.482H364.967V465.792ZM377.368 462.646C377.368 462.962 377.312 463.305 377.201 463.674C377.09 464.037 376.908 464.377 376.656 464.693C376.41 465.004 376.085 465.265 375.681 465.476C375.282 465.687 374.796 465.792 374.222 465.792H370.1V463.621H374.222C374.532 463.621 374.772 463.527 374.942 463.34C375.112 463.146 375.197 462.909 375.197 462.628C375.197 462.329 375.101 462.095 374.907 461.925C374.72 461.755 374.491 461.67 374.222 461.67H370.1C369.789 461.67 369.549 461.767 369.379 461.96C369.209 462.147 369.124 462.382 369.124 462.663V465.854C369.124 466.158 369.218 466.396 369.405 466.565C369.599 466.735 369.836 466.82 370.117 466.82H374.222V469H370.1C369.783 469 369.44 468.944 369.071 468.833C368.708 468.722 368.368 468.543 368.052 468.297C367.741 468.045 367.48 467.72 367.27 467.321C367.059 466.917 366.953 466.428 366.953 465.854V462.646C366.953 462.329 367.009 461.989 367.12 461.626C367.231 461.257 367.41 460.917 367.656 460.606C367.908 460.29 368.233 460.026 368.632 459.815C369.036 459.604 369.525 459.499 370.1 459.499H374.222C374.538 459.499 374.878 459.555 375.241 459.666C375.61 459.777 375.95 459.959 376.261 460.211C376.577 460.457 376.841 460.782 377.052 461.187C377.263 461.585 377.368 462.071 377.368 462.646ZM389.436 469H387.15V463.727C387.15 463.428 387.098 463.161 386.992 462.927C386.893 462.687 386.755 462.481 386.579 462.312C386.403 462.142 386.195 462.013 385.955 461.925C385.721 461.831 385.466 461.784 385.19 461.784H381.191V469H378.906V460.633C378.906 460.475 378.936 460.328 378.994 460.193C379.053 460.053 379.135 459.933 379.24 459.833C379.346 459.728 379.469 459.646 379.609 459.587C379.75 459.528 379.899 459.499 380.058 459.499H385.208C385.495 459.499 385.797 459.531 386.113 459.596C386.436 459.66 386.752 459.766 387.062 459.912C387.379 460.053 387.678 460.234 387.959 460.457C388.246 460.674 388.498 460.94 388.715 461.257C388.938 461.567 389.113 461.928 389.242 462.338C389.371 462.748 389.436 463.211 389.436 463.727V469ZM399.798 461.784H395.808V469H393.496V461.784H390.525V459.499H393.496V456.396H395.808V459.499H399.798V461.784ZM403.621 457.548H401.336V455.482H403.621V457.548ZM403.621 469H401.336V459.499H403.621V469ZM415.627 465.854C415.627 466.17 415.571 466.513 415.46 466.882C415.349 467.245 415.167 467.585 414.915 467.901C414.669 468.212 414.344 468.473 413.939 468.684C413.541 468.895 413.055 469 412.48 469H408.358C408.042 469 407.699 468.944 407.33 468.833C406.967 468.722 406.627 468.543 406.311 468.297C406 468.045 405.739 467.72 405.528 467.321C405.317 466.917 405.212 466.428 405.212 465.854C405.212 465.537 405.268 465.194 405.379 464.825C405.49 464.456 405.669 464.116 405.915 463.806C406.167 463.489 406.492 463.226 406.891 463.015C407.295 462.804 407.784 462.698 408.358 462.698H412.48V464.878H408.358C408.048 464.878 407.808 464.975 407.638 465.168C407.468 465.355 407.383 465.59 407.383 465.871C407.383 466.17 407.479 466.404 407.673 466.574C407.872 466.738 408.106 466.82 408.376 466.82H412.48C412.791 466.82 413.031 466.727 413.201 466.539C413.371 466.352 413.456 466.117 413.456 465.836V462.646C413.456 462.347 413.362 462.109 413.175 461.934C412.993 461.758 412.762 461.67 412.48 461.67H407.462V459.499H412.48C412.797 459.499 413.137 459.555 413.5 459.666C413.869 459.777 414.209 459.959 414.52 460.211C414.836 460.457 415.1 460.782 415.311 461.187C415.521 461.585 415.627 462.071 415.627 462.646V465.854ZM421.753 469H420.733C420.405 469 420.054 468.944 419.679 468.833C419.31 468.722 418.964 468.54 418.642 468.288C418.319 468.03 418.053 467.699 417.842 467.295C417.631 466.885 417.525 466.384 417.525 465.792V455.482H419.811V465.792C419.811 466.073 419.898 466.299 420.074 466.469C420.25 466.633 420.47 466.715 420.733 466.715H421.753V469ZM441.607 456.396L435.64 468.552C435.546 468.739 435.405 468.889 435.218 469C435.036 469.117 434.834 469.176 434.611 469.176C434.395 469.176 434.192 469.117 434.005 469C433.823 468.889 433.683 468.739 433.583 468.552L427.624 456.396H430.182L434.611 465.476L439.059 456.396H441.607ZM452.251 462.646C452.251 462.962 452.195 463.305 452.084 463.674C451.973 464.037 451.791 464.377 451.539 464.693C451.293 465.004 450.968 465.265 450.563 465.476C450.165 465.687 449.679 465.792 449.104 465.792H444.982V463.621H449.104C449.415 463.621 449.655 463.527 449.825 463.34C449.995 463.146 450.08 462.909 450.08 462.628C450.08 462.329 449.983 462.095 449.79 461.925C449.603 461.755 449.374 461.67 449.104 461.67H444.982C444.672 461.67 444.432 461.767 444.262 461.96C444.092 462.147 444.007 462.382 444.007 462.663V465.854C444.007 466.158 444.101 466.396 444.288 466.565C444.481 466.735 444.719 466.82 445 466.82H449.104V469H444.982C444.666 469 444.323 468.944 443.954 468.833C443.591 468.722 443.251 468.543 442.935 468.297C442.624 468.045 442.363 467.72 442.152 467.321C441.941 466.917 441.836 466.428 441.836 465.854V462.646C441.836 462.329 441.892 461.989 442.003 461.626C442.114 461.257 442.293 460.917 442.539 460.606C442.791 460.29 443.116 460.026 443.515 459.815C443.919 459.604 444.408 459.499 444.982 459.499H449.104C449.421 459.499 449.761 459.555 450.124 459.666C450.493 459.777 450.833 459.959 451.144 460.211C451.46 460.457 451.724 460.782 451.935 461.187C452.146 461.585 452.251 462.071 452.251 462.646ZM462.104 461.784H456.962C456.651 461.784 456.417 461.863 456.259 462.021C456.101 462.174 456.021 462.399 456.021 462.698V469H453.736V462.698C453.736 462.306 453.786 461.954 453.886 461.644C453.985 461.333 454.117 461.061 454.281 460.826C454.451 460.586 454.645 460.384 454.861 460.22C455.078 460.05 455.304 459.912 455.538 459.807C455.778 459.701 456.019 459.625 456.259 459.578C456.505 459.525 456.733 459.499 456.944 459.499H462.104V461.784ZM465.936 457.548H463.65V455.482H465.936V457.548ZM465.936 469H463.65V459.499H465.936V469ZM476.544 457.662H471.394C471.083 457.662 470.849 457.741 470.69 457.899C470.532 458.052 470.453 458.277 470.453 458.576V469H468.168V458.576C468.168 458.184 468.218 457.832 468.317 457.521C468.417 457.211 468.549 456.938 468.713 456.704C468.883 456.464 469.076 456.262 469.293 456.098C469.51 455.928 469.735 455.79 469.97 455.685C470.21 455.579 470.45 455.503 470.69 455.456C470.931 455.403 471.159 455.377 471.376 455.377H476.544V457.662ZM479.831 469H477.546L477.528 461.784H471.376V459.499H479.849L479.831 469ZM479.831 457.662H477.546V455.412H479.831V457.662ZM491.222 469H485.025C484.709 469 484.363 468.944 483.988 468.833C483.613 468.722 483.265 468.54 482.942 468.288C482.626 468.03 482.359 467.699 482.143 467.295C481.932 466.885 481.826 466.384 481.826 465.792V462.698C481.826 462.481 481.85 462.253 481.896 462.013C481.949 461.772 482.028 461.535 482.134 461.301C482.239 461.061 482.374 460.832 482.538 460.615C482.708 460.398 482.91 460.208 483.145 460.044C483.385 459.88 483.66 459.748 483.971 459.648C484.281 459.549 484.633 459.499 485.025 459.499H491.222V461.784H485.025C484.727 461.784 484.498 461.86 484.34 462.013C484.188 462.165 484.111 462.399 484.111 462.716V465.792C484.111 466.091 484.19 466.319 484.349 466.478C484.507 466.636 484.738 466.715 485.043 466.715H491.222V469ZM502.867 465.854C502.867 466.17 502.812 466.513 502.7 466.882C502.589 467.245 502.407 467.585 502.155 467.901C501.909 468.212 501.584 468.473 501.18 468.684C500.781 468.895 500.295 469 499.721 469H495.599C495.282 469 494.939 468.944 494.57 468.833C494.207 468.722 493.867 468.543 493.551 468.297C493.24 468.045 492.979 467.72 492.769 467.321C492.558 466.917 492.452 466.428 492.452 465.854C492.452 465.537 492.508 465.194 492.619 464.825C492.73 464.456 492.909 464.116 493.155 463.806C493.407 463.489 493.732 463.226 494.131 463.015C494.535 462.804 495.024 462.698 495.599 462.698H499.721V464.878H495.599C495.288 464.878 495.048 464.975 494.878 465.168C494.708 465.355 494.623 465.59 494.623 465.871C494.623 466.17 494.72 466.404 494.913 466.574C495.112 466.738 495.347 466.82 495.616 466.82H499.721C500.031 466.82 500.271 466.727 500.441 466.539C500.611 466.352 500.696 466.117 500.696 465.836V462.646C500.696 462.347 500.603 462.109 500.415 461.934C500.233 461.758 500.002 461.67 499.721 461.67H494.702V459.499H499.721C500.037 459.499 500.377 459.555 500.74 459.666C501.109 459.777 501.449 459.959 501.76 460.211C502.076 460.457 502.34 460.782 502.551 461.187C502.762 461.585 502.867 462.071 502.867 462.646V465.854ZM513.423 461.784H509.433V469H507.121V461.784H504.15V459.499H507.121V456.396H509.433V459.499H513.423V461.784ZM517.246 457.548H514.961V455.482H517.246V457.548ZM517.246 469H514.961V459.499H517.246V469ZM529.779 465.792C529.779 466.185 529.729 466.539 529.63 466.855C529.53 467.166 529.398 467.441 529.234 467.682C529.07 467.916 528.88 468.118 528.663 468.288C528.446 468.452 528.218 468.587 527.978 468.692C527.743 468.798 527.503 468.877 527.257 468.93C527.017 468.977 526.788 469 526.571 469H522.449C522.133 469 521.787 468.944 521.412 468.833C521.037 468.722 520.688 468.54 520.366 468.288C520.05 468.03 519.783 467.699 519.566 467.295C519.355 466.885 519.25 466.384 519.25 465.792V462.698C519.25 462.112 519.355 461.617 519.566 461.213C519.783 460.803 520.05 460.472 520.366 460.22C520.688 459.962 521.037 459.777 521.412 459.666C521.787 459.555 522.133 459.499 522.449 459.499H526.571C527.157 459.499 527.655 459.604 528.065 459.815C528.476 460.026 528.807 460.293 529.059 460.615C529.311 460.932 529.492 461.277 529.604 461.652C529.721 462.027 529.779 462.376 529.779 462.698V465.792ZM527.494 462.716C527.494 462.399 527.415 462.165 527.257 462.013C527.099 461.86 526.87 461.784 526.571 461.784H522.467C522.162 461.784 521.931 461.863 521.772 462.021C521.614 462.174 521.535 462.399 521.535 462.698V465.792C521.535 466.091 521.614 466.319 521.772 466.478C521.931 466.636 522.162 466.715 522.467 466.715H526.571C526.882 466.715 527.113 466.636 527.266 466.478C527.418 466.319 527.494 466.091 527.494 465.792V462.716ZM542.26 469H539.975V463.727C539.975 463.428 539.922 463.161 539.816 462.927C539.717 462.687 539.579 462.481 539.403 462.312C539.228 462.142 539.02 462.013 538.779 461.925C538.545 461.831 538.29 461.784 538.015 461.784H534.016V469H531.73V460.633C531.73 460.475 531.76 460.328 531.818 460.193C531.877 460.053 531.959 459.933 532.064 459.833C532.17 459.728 532.293 459.646 532.434 459.587C532.574 459.528 532.724 459.499 532.882 459.499H538.032C538.319 459.499 538.621 459.531 538.938 459.596C539.26 459.66 539.576 459.766 539.887 459.912C540.203 460.053 540.502 460.234 540.783 460.457C541.07 460.674 541.322 460.94 541.539 461.257C541.762 461.567 541.938 461.928 542.066 462.338C542.195 462.748 542.26 463.211 542.26 463.727V469ZM562.483 465.291C562.483 465.742 562.425 466.149 562.308 466.513C562.196 466.87 562.047 467.187 561.859 467.462C561.672 467.737 561.452 467.972 561.2 468.165C560.948 468.358 560.688 468.517 560.418 468.64C560.148 468.763 559.873 468.854 559.592 468.912C559.316 468.971 559.056 469 558.81 469H549.994V466.715H558.81C559.249 466.715 559.589 466.586 559.829 466.328C560.075 466.07 560.198 465.725 560.198 465.291C560.198 465.08 560.166 464.887 560.102 464.711C560.037 464.535 559.943 464.383 559.82 464.254C559.703 464.125 559.557 464.025 559.381 463.955C559.211 463.885 559.021 463.85 558.81 463.85H553.554C553.185 463.85 552.786 463.785 552.358 463.656C551.931 463.521 551.532 463.308 551.163 463.015C550.8 462.722 550.495 462.338 550.249 461.863C550.009 461.389 549.889 460.809 549.889 460.123C549.889 459.438 550.009 458.86 550.249 458.392C550.495 457.917 550.8 457.533 551.163 457.24C551.532 456.941 551.931 456.728 552.358 456.599C552.786 456.464 553.185 456.396 553.554 456.396H561.332V458.682H553.554C553.12 458.682 552.78 458.813 552.534 459.077C552.294 459.341 552.174 459.689 552.174 460.123C552.174 460.562 552.294 460.911 552.534 461.169C552.78 461.421 553.12 461.547 553.554 461.547H558.81H558.827C559.073 461.553 559.334 461.588 559.609 461.652C559.885 461.711 560.157 461.805 560.427 461.934C560.702 462.062 560.963 462.227 561.209 462.426C561.455 462.619 561.672 462.854 561.859 463.129C562.053 463.404 562.205 463.721 562.316 464.078C562.428 464.436 562.483 464.84 562.483 465.291ZM574.604 469.914C574.604 470.307 574.554 470.658 574.454 470.969C574.354 471.285 574.223 471.561 574.059 471.795C573.895 472.035 573.704 472.237 573.487 472.401C573.271 472.571 573.042 472.709 572.802 472.814C572.567 472.92 572.33 472.996 572.09 473.043C571.85 473.096 571.621 473.122 571.404 473.122H567.282V470.837H571.404C571.709 470.837 571.938 470.758 572.09 470.6C572.242 470.441 572.318 470.213 572.318 469.914V459.499H574.604V469.914ZM571.404 469H567.282C566.954 469 566.603 468.944 566.228 468.833C565.858 468.722 565.513 468.54 565.19 468.288C564.868 468.03 564.602 467.699 564.391 467.295C564.18 466.885 564.074 466.384 564.074 465.792V459.499H566.359V465.792C566.359 466.091 566.438 466.319 566.597 466.478C566.755 466.636 566.989 466.715 567.3 466.715H571.404V469ZM585.968 465.792C585.968 466.185 585.918 466.539 585.818 466.855C585.719 467.166 585.587 467.441 585.423 467.682C585.259 467.916 585.068 468.118 584.852 468.288C584.635 468.452 584.406 468.587 584.166 468.692C583.932 468.798 583.691 468.877 583.445 468.93C583.205 468.977 582.977 469 582.76 469H576.572V466.715H582.742C583.053 466.715 583.287 466.636 583.445 466.478C583.604 466.319 583.683 466.091 583.683 465.792C583.653 465.183 583.346 464.878 582.76 464.878H579.218C578.714 464.878 578.286 464.79 577.935 464.614C577.583 464.438 577.296 464.219 577.073 463.955C576.856 463.691 576.698 463.407 576.599 463.103C576.505 462.798 576.458 462.514 576.458 462.25C576.458 461.74 576.549 461.312 576.73 460.967C576.912 460.615 577.141 460.331 577.416 460.114C577.691 459.897 577.99 459.742 578.312 459.648C578.635 459.549 578.937 459.499 579.218 459.499H584.834V461.784H579.235C579.118 461.784 579.024 461.799 578.954 461.828C578.89 461.852 578.84 461.887 578.805 461.934C578.775 461.975 578.758 462.021 578.752 462.074C578.746 462.121 578.743 462.168 578.743 462.215C578.749 462.309 578.767 462.382 578.796 462.435C578.825 462.487 578.86 462.525 578.901 462.549C578.948 462.572 578.998 462.587 579.051 462.593C579.109 462.593 579.165 462.593 579.218 462.593H582.76C583.346 462.593 583.844 462.698 584.254 462.909C584.664 463.12 584.995 463.387 585.247 463.709C585.499 464.025 585.681 464.371 585.792 464.746C585.909 465.121 585.968 465.47 585.968 465.792ZM596.058 461.784H592.067V469H589.756V461.784H586.785V459.499H589.756V456.396H592.067V459.499H596.058V461.784ZM607.747 462.646C607.747 462.962 607.691 463.305 607.58 463.674C607.469 464.037 607.287 464.377 607.035 464.693C606.789 465.004 606.464 465.265 606.06 465.476C605.661 465.687 605.175 465.792 604.601 465.792H600.479V463.621H604.601C604.911 463.621 605.151 463.527 605.321 463.34C605.491 463.146 605.576 462.909 605.576 462.628C605.576 462.329 605.479 462.095 605.286 461.925C605.099 461.755 604.87 461.67 604.601 461.67H600.479C600.168 461.67 599.928 461.767 599.758 461.96C599.588 462.147 599.503 462.382 599.503 462.663V465.854C599.503 466.158 599.597 466.396 599.784 466.565C599.978 466.735 600.215 466.82 600.496 466.82H604.601V469H600.479C600.162 469 599.819 468.944 599.45 468.833C599.087 468.722 598.747 468.543 598.431 468.297C598.12 468.045 597.859 467.72 597.648 467.321C597.438 466.917 597.332 466.428 597.332 465.854V462.646C597.332 462.329 597.388 461.989 597.499 461.626C597.61 461.257 597.789 460.917 598.035 460.606C598.287 460.29 598.612 460.026 599.011 459.815C599.415 459.604 599.904 459.499 600.479 459.499H604.601C604.917 459.499 605.257 459.555 605.62 459.666C605.989 459.777 606.329 459.959 606.64 460.211C606.956 460.457 607.22 460.782 607.431 461.187C607.642 461.585 607.747 462.071 607.747 462.646ZM617.767 469H615.481V462.698C615.481 462.399 615.402 462.174 615.244 462.021C615.086 461.863 614.852 461.784 614.541 461.784H611.57V469H609.285V460.633C609.285 460.475 609.314 460.328 609.373 460.193C609.432 460.053 609.514 459.933 609.619 459.833C609.725 459.728 609.848 459.646 609.988 459.587C610.129 459.528 610.278 459.499 610.437 459.499H614.559C614.875 459.499 615.215 459.555 615.578 459.666C615.941 459.777 616.287 459.956 616.615 460.202V459.499H619.709C619.926 459.499 620.154 459.525 620.395 459.578C620.635 459.625 620.872 459.701 621.106 459.807C621.347 459.912 621.575 460.05 621.792 460.22C622.009 460.384 622.199 460.586 622.363 460.826C622.527 461.061 622.659 461.333 622.759 461.644C622.858 461.954 622.908 462.306 622.908 462.698V469H620.623V462.698C620.623 462.399 620.547 462.174 620.395 462.021C620.248 461.863 620.02 461.784 619.709 461.784H617.652C617.729 462.065 617.767 462.37 617.767 462.698V469ZM641.26 467.849C641.26 468.013 641.23 468.165 641.172 468.306C641.113 468.446 641.031 468.569 640.926 468.675C640.826 468.774 640.706 468.854 640.565 468.912C640.431 468.971 640.284 469 640.126 469H634.958C634.677 469 634.375 468.968 634.053 468.903C633.736 468.839 633.423 468.736 633.112 468.596C632.802 468.449 632.5 468.268 632.207 468.051C631.92 467.828 631.668 467.562 631.451 467.251C631.234 466.935 631.059 466.571 630.924 466.161C630.795 465.751 630.73 465.288 630.73 464.772V459.499H633.016V464.772C633.016 465.071 633.065 465.341 633.165 465.581C633.271 465.815 633.411 466.018 633.587 466.188C633.763 466.357 633.968 466.489 634.202 466.583C634.442 466.671 634.7 466.715 634.976 466.715H638.975V459.499H641.26V467.849ZM652.589 465.792C652.589 466.185 652.539 466.539 652.439 466.855C652.34 467.166 652.208 467.441 652.044 467.682C651.88 467.916 651.689 468.118 651.473 468.288C651.256 468.452 651.027 468.587 650.787 468.692C650.553 468.798 650.312 468.877 650.066 468.93C649.826 468.977 649.598 469 649.381 469H643.193V466.715H649.363C649.674 466.715 649.908 466.636 650.066 466.478C650.225 466.319 650.304 466.091 650.304 465.792C650.274 465.183 649.967 464.878 649.381 464.878H645.839C645.335 464.878 644.907 464.79 644.556 464.614C644.204 464.438 643.917 464.219 643.694 463.955C643.478 463.691 643.319 463.407 643.22 463.103C643.126 462.798 643.079 462.514 643.079 462.25C643.079 461.74 643.17 461.312 643.352 460.967C643.533 460.615 643.762 460.331 644.037 460.114C644.312 459.897 644.611 459.742 644.934 459.648C645.256 459.549 645.558 459.499 645.839 459.499H651.455V461.784H645.856C645.739 461.784 645.646 461.799 645.575 461.828C645.511 461.852 645.461 461.887 645.426 461.934C645.396 461.975 645.379 462.021 645.373 462.074C645.367 462.121 645.364 462.168 645.364 462.215C645.37 462.309 645.388 462.382 645.417 462.435C645.446 462.487 645.481 462.525 645.522 462.549C645.569 462.572 645.619 462.587 645.672 462.593C645.73 462.593 645.786 462.593 645.839 462.593H649.381C649.967 462.593 650.465 462.698 650.875 462.909C651.285 463.12 651.616 463.387 651.868 463.709C652.12 464.025 652.302 464.371 652.413 464.746C652.53 465.121 652.589 465.47 652.589 465.792ZM656.518 457.548H654.232V455.482H656.518V457.548ZM656.518 469H654.232V459.499H656.518V469ZM669.244 469H666.959V463.727C666.959 463.428 666.906 463.161 666.801 462.927C666.701 462.687 666.563 462.481 666.388 462.312C666.212 462.142 666.004 462.013 665.764 461.925C665.529 461.831 665.274 461.784 664.999 461.784H661V469H658.715V460.633C658.715 460.475 658.744 460.328 658.803 460.193C658.861 460.053 658.943 459.933 659.049 459.833C659.154 459.728 659.277 459.646 659.418 459.587C659.559 459.528 659.708 459.499 659.866 459.499H665.017C665.304 459.499 665.605 459.531 665.922 459.596C666.244 459.66 666.561 459.766 666.871 459.912C667.188 460.053 667.486 460.234 667.768 460.457C668.055 460.674 668.307 460.94 668.523 461.257C668.746 461.567 668.922 461.928 669.051 462.338C669.18 462.748 669.244 463.211 669.244 463.727V469ZM681.584 469.914C681.584 470.307 681.534 470.658 681.435 470.969C681.335 471.285 681.203 471.561 681.039 471.795C680.875 472.035 680.685 472.237 680.468 472.401C680.251 472.571 680.022 472.709 679.782 472.814C679.548 472.92 679.308 472.996 679.062 473.043C678.821 473.096 678.593 473.122 678.376 473.122H674.254V470.837H678.376C678.687 470.837 678.918 470.758 679.07 470.6C679.223 470.441 679.299 470.213 679.299 469.914V462.698C679.299 462.399 679.223 462.174 679.07 462.021C678.918 461.863 678.687 461.784 678.376 461.784H674.254C673.973 461.784 673.75 461.872 673.586 462.048C673.422 462.218 673.34 462.435 673.34 462.698V465.792C673.34 466.091 673.419 466.319 673.577 466.478C673.735 466.636 673.967 466.715 674.271 466.715H678.376V469H674.254C674.037 469 673.809 468.977 673.568 468.93C673.328 468.877 673.088 468.798 672.848 468.692C672.613 468.587 672.388 468.452 672.171 468.288C671.954 468.118 671.764 467.916 671.6 467.682C671.436 467.441 671.304 467.166 671.204 466.855C671.104 466.539 671.055 466.185 671.055 465.792V462.698C671.055 462.481 671.078 462.253 671.125 462.013C671.178 461.772 671.257 461.535 671.362 461.301C671.468 461.061 671.603 460.832 671.767 460.615C671.937 460.398 672.139 460.208 672.373 460.044C672.613 459.88 672.889 459.748 673.199 459.648C673.51 459.549 673.861 459.499 674.254 459.499H678.376C678.593 459.499 678.821 459.525 679.062 459.578C679.308 459.625 679.548 459.701 679.782 459.807C680.022 459.912 680.251 460.05 680.468 460.22C680.685 460.384 680.875 460.586 681.039 460.826C681.203 461.061 681.335 461.333 681.435 461.644C681.534 461.954 681.584 462.306 681.584 462.698V469.914ZM702.361 466.231C702.361 466.513 702.312 466.814 702.212 467.137C702.118 467.459 701.96 467.758 701.737 468.033C701.521 468.309 701.236 468.54 700.885 468.728C700.533 468.909 700.103 469 699.593 469H690.918C690.754 469 690.602 468.971 690.461 468.912C690.32 468.854 690.197 468.774 690.092 468.675C689.992 468.569 689.913 468.446 689.854 468.306C689.796 468.165 689.767 468.013 689.767 467.849V457.548C689.767 457.39 689.796 457.24 689.854 457.1C689.913 456.959 689.992 456.836 690.092 456.73C690.197 456.625 690.32 456.543 690.461 456.484C690.602 456.426 690.754 456.396 690.918 456.396H698.564C698.846 456.396 699.147 456.446 699.47 456.546C699.792 456.646 700.091 456.807 700.366 457.029C700.647 457.246 700.879 457.53 701.061 457.882C701.248 458.233 701.342 458.664 701.342 459.174V459.604C701.342 460.009 701.274 460.445 701.14 460.914C701.005 461.377 700.788 461.816 700.489 462.232C700.747 462.391 700.987 462.581 701.21 462.804C701.438 463.026 701.638 463.284 701.808 463.577C701.978 463.87 702.112 464.201 702.212 464.57C702.312 464.939 702.361 465.347 702.361 465.792V466.231ZM700.076 465.792C700.076 465.493 700.029 465.227 699.936 464.992C699.842 464.752 699.71 464.547 699.54 464.377C699.37 464.207 699.165 464.078 698.925 463.99C698.685 463.896 698.415 463.85 698.116 463.85H692.966V461.547H697.088C697.387 461.547 697.656 461.503 697.896 461.415C698.137 461.321 698.342 461.189 698.512 461.02C698.682 460.85 698.811 460.647 698.898 460.413C698.992 460.173 699.039 459.903 699.039 459.604V459.174C699.039 458.846 698.881 458.682 698.564 458.682H692.052V466.715H699.593C699.634 466.715 699.684 466.712 699.742 466.706C699.801 466.7 699.854 466.683 699.9 466.653C699.947 466.624 699.988 466.574 700.023 466.504C700.059 466.434 700.076 466.337 700.076 466.214V465.792ZM708.276 469H707.257C706.929 469 706.577 468.944 706.202 468.833C705.833 468.722 705.487 468.54 705.165 468.288C704.843 468.03 704.576 467.699 704.365 467.295C704.154 466.885 704.049 466.384 704.049 465.792V455.482H706.334V465.792C706.334 466.073 706.422 466.299 706.598 466.469C706.773 466.633 706.993 466.715 707.257 466.715H708.276V469ZM720.08 465.792C720.08 466.185 720.03 466.539 719.931 466.855C719.831 467.166 719.699 467.441 719.535 467.682C719.371 467.916 719.181 468.118 718.964 468.288C718.747 468.452 718.519 468.587 718.278 468.692C718.044 468.798 717.804 468.877 717.558 468.93C717.317 468.977 717.089 469 716.872 469H712.75C712.434 469 712.088 468.944 711.713 468.833C711.338 468.722 710.989 468.54 710.667 468.288C710.351 468.03 710.084 467.699 709.867 467.295C709.656 466.885 709.551 466.384 709.551 465.792V462.698C709.551 462.112 709.656 461.617 709.867 461.213C710.084 460.803 710.351 460.472 710.667 460.22C710.989 459.962 711.338 459.777 711.713 459.666C712.088 459.555 712.434 459.499 712.75 459.499H716.872C717.458 459.499 717.956 459.604 718.366 459.815C718.776 460.026 719.107 460.293 719.359 460.615C719.611 460.932 719.793 461.277 719.904 461.652C720.021 462.027 720.08 462.376 720.08 462.698V465.792ZM717.795 462.716C717.795 462.399 717.716 462.165 717.558 462.013C717.399 461.86 717.171 461.784 716.872 461.784H712.768C712.463 461.784 712.231 461.863 712.073 462.021C711.915 462.174 711.836 462.399 711.836 462.698V465.792C711.836 466.091 711.915 466.319 712.073 466.478C712.231 466.636 712.463 466.715 712.768 466.715H716.872C717.183 466.715 717.414 466.636 717.566 466.478C717.719 466.319 717.795 466.091 717.795 465.792V462.716ZM731.233 469H725.037C724.721 469 724.375 468.944 724 468.833C723.625 468.722 723.276 468.54 722.954 468.288C722.638 468.03 722.371 467.699 722.154 467.295C721.943 466.885 721.838 466.384 721.838 465.792V462.698C721.838 462.481 721.861 462.253 721.908 462.013C721.961 461.772 722.04 461.535 722.146 461.301C722.251 461.061 722.386 460.832 722.55 460.615C722.72 460.398 722.922 460.208 723.156 460.044C723.396 459.88 723.672 459.748 723.982 459.648C724.293 459.549 724.645 459.499 725.037 459.499H731.233V461.784H725.037C724.738 461.784 724.51 461.86 724.352 462.013C724.199 462.165 724.123 462.399 724.123 462.716V465.792C724.123 466.091 724.202 466.319 724.36 466.478C724.519 466.636 724.75 466.715 725.055 466.715H731.233V469ZM744.285 469H740.989L736.384 464.553C736.126 464.318 736.006 464.025 736.023 463.674C736.035 463.51 736.076 463.357 736.146 463.217C736.223 463.07 736.325 462.947 736.454 462.848L740.629 459.481H744.285L738.906 463.814L744.285 469ZM735.443 469H733.158V455.482H735.443V469ZM757.108 469H748.864C748.653 469 748.425 468.977 748.179 468.93C747.938 468.877 747.698 468.798 747.458 468.692C747.224 468.587 746.998 468.452 746.781 468.288C746.564 468.118 746.371 467.916 746.201 467.682C746.037 467.441 745.905 467.166 745.806 466.855C745.706 466.539 745.656 466.185 745.656 465.792V459.604C745.656 459.394 745.68 459.168 745.727 458.928C745.779 458.682 745.858 458.441 745.964 458.207C746.069 457.967 746.207 457.738 746.377 457.521C746.547 457.305 746.749 457.114 746.983 456.95C747.224 456.78 747.499 456.646 747.81 456.546C748.12 456.446 748.472 456.396 748.864 456.396H757.108V458.682H748.864C748.565 458.682 748.337 458.761 748.179 458.919C748.021 459.077 747.941 459.312 747.941 459.622V465.792C747.941 466.085 748.021 466.313 748.179 466.478C748.343 466.636 748.571 466.715 748.864 466.715H757.108V469ZM769.58 469H767.295V462.698C767.295 462.399 767.219 462.174 767.066 462.021C766.914 461.863 766.686 461.784 766.381 461.784H762.259V459.499H766.381C766.598 459.499 766.826 459.525 767.066 459.578C767.307 459.625 767.544 459.701 767.778 459.807C768.019 459.912 768.247 460.05 768.464 460.22C768.681 460.384 768.871 460.586 769.035 460.826C769.199 461.061 769.331 461.333 769.431 461.644C769.53 461.954 769.58 462.306 769.58 462.698V469ZM761.336 469H759.051V455.482H761.336V469ZM781.48 465.854C781.48 466.17 781.425 466.513 781.313 466.882C781.202 467.245 781.021 467.585 780.769 467.901C780.522 468.212 780.197 468.473 779.793 468.684C779.395 468.895 778.908 469 778.334 469H774.212C773.896 469 773.553 468.944 773.184 468.833C772.82 468.722 772.48 468.543 772.164 468.297C771.854 468.045 771.593 467.72 771.382 467.321C771.171 466.917 771.065 466.428 771.065 465.854C771.065 465.537 771.121 465.194 771.232 464.825C771.344 464.456 771.522 464.116 771.769 463.806C772.021 463.489 772.346 463.226 772.744 463.015C773.148 462.804 773.638 462.698 774.212 462.698H778.334V464.878H774.212C773.901 464.878 773.661 464.975 773.491 465.168C773.321 465.355 773.236 465.59 773.236 465.871C773.236 466.17 773.333 466.404 773.526 466.574C773.726 466.738 773.96 466.82 774.229 466.82H778.334C778.645 466.82 778.885 466.727 779.055 466.539C779.225 466.352 779.31 466.117 779.31 465.836V462.646C779.31 462.347 779.216 462.109 779.028 461.934C778.847 461.758 778.615 461.67 778.334 461.67H773.315V459.499H778.334C778.65 459.499 778.99 459.555 779.354 459.666C779.723 459.777 780.062 459.959 780.373 460.211C780.689 460.457 780.953 460.782 781.164 461.187C781.375 461.585 781.48 462.071 781.48 462.646V465.854ZM785.752 457.548H783.467V455.482H785.752V457.548ZM785.752 469H783.467V459.499H785.752V469ZM798.479 469H796.193V463.727C796.193 463.428 796.141 463.161 796.035 462.927C795.936 462.687 795.798 462.481 795.622 462.312C795.446 462.142 795.238 462.013 794.998 461.925C794.764 461.831 794.509 461.784 794.233 461.784H790.234V469H787.949V460.633C787.949 460.475 787.979 460.328 788.037 460.193C788.096 460.053 788.178 459.933 788.283 459.833C788.389 459.728 788.512 459.646 788.652 459.587C788.793 459.528 788.942 459.499 789.101 459.499H794.251C794.538 459.499 794.84 459.531 795.156 459.596C795.479 459.66 795.795 459.766 796.105 459.912C796.422 460.053 796.721 460.234 797.002 460.457C797.289 460.674 797.541 460.94 797.758 461.257C797.98 461.567 798.156 461.928 798.285 462.338C798.414 462.748 798.479 463.211 798.479 463.727V469Z" fill="#838383"/>
</svg>
